<?xml version="1.0" encoding="UTF-8"?>
<svg id="katman_1" xmlns="http://www.w3.org/2000/svg" viewBox="0 0 150.43 87.75">
  <defs>
    <style>
      .cls-1 {
        fill: #257bb5;
      }

      .cls-2 {
        fill: #d5d7d6;
      }
    </style>
  </defs>
  <path class="cls-2" d="M70.67,61.42c0,3.74-.72,7.22-2.16,10.41-1.44,3.2-3.43,5.99-5.97,8.37-2.54,2.38-5.52,4.23-8.95,5.56-3.43,1.33-7.14,1.99-11.11,1.99H0V0h38.38c3.67,0,7.1.6,10.3,1.81,3.2,1.21,5.97,2.87,8.31,4.97s4.19,4.62,5.56,7.55c1.36,2.92,2.05,6.1,2.05,9.54,0,2.26-.29,4.21-.88,5.85-.58,1.64-1.33,3.06-2.22,4.27-.9,1.21-1.87,2.26-2.92,3.16-1.05.9-2.09,1.74-3.1,2.52,1.87.86,3.72,1.93,5.56,3.22,1.83,1.29,3.45,2.81,4.86,4.56,1.4,1.75,2.55,3.78,3.45,6.08.9,2.3,1.35,4.93,1.35,7.9ZM23.87,32.53h11.58c1.56,0,2.9-.68,4.04-2.05,1.13-1.36,1.7-2.83,1.7-4.39s-.57-3-1.7-4.33c-1.13-1.33-2.48-1.99-4.04-1.99h-11.58v12.75ZM46.1,59.67c0-2.42-.74-4.41-2.22-5.97-1.48-1.56-3.32-2.34-5.5-2.34h-14.51v16.61h14.51c2.18,0,4.02-.84,5.5-2.51,1.48-1.68,2.22-3.61,2.22-5.79Z"/>
  <path class="cls-1" d="M116.67.63c12.45,0,23.82,2.57,33.76,10.45l-9.71,12.68c-7.2-4.86-15.48-6.63-24.05-6.63-16.57,0-24.74,10.91-24.74,26.74s8.17,26.74,24.74,26.74c5.37,0,10.8-.69,15.6-3.14v-24.96s17.65,0,17.65,0v34.9c-9.08,7.71-21.65,9.71-33.25,9.71-26.79,0-44.33-16.22-44.33-43.25S89.87.63,116.67.63Z"/>
</svg>