<?xml version="1.0" encoding="UTF-8"?>
<svg id="katman_1" xmlns="http://www.w3.org/2000/svg" viewBox="0 0 629.71 118.14">
  <defs>
    <style>
      .cls-1 {
        fill: #257bb5;
      }

      .cls-2 {
        fill: #d5d7d6;
      }
    </style>
  </defs>
  <path class="cls-1" d="M436.9,3.54c12.45,0,23.82,2.57,33.76,10.45l-9.71,12.68c-7.2-4.86-15.48-6.63-24.05-6.63-16.57,0-24.74,10.91-24.74,26.74s8.17,26.74,24.74,26.74c5.37,0,10.8-.69,15.6-3.14v-24.96s17.65,0,17.65,0v34.9c-9.08,7.71-21.65,9.71-33.25,9.71-26.79,0-44.33-16.22-44.33-43.25S410.11,3.54,436.9,3.54Z"/>
  <path class="cls-1" d="M511,27.19c7.66,0,14.97,2.91,19.31,9.48v-7.77h18.74v58.84h-18.74v-7.77c-4.34,6.57-11.65,9.48-19.31,9.48-18.68,0-30.05-12.8-30.05-31.14s11.37-31.14,30.05-31.14ZM499.69,58.33c0,9.48,5.31,16.74,15.31,16.74s15.31-7.26,15.31-16.74-5.31-16.74-15.31-16.74-15.31,7.26-15.31,16.74Z"/>
  <path class="cls-1" d="M561.61,28.91h18.74v7.77c4.34-6.57,11.65-9.48,19.31-9.48,18.68,0,30.05,12.8,30.05,31.14s-11.37,31.14-30.05,31.14c-7.66,0-14.97-2.91-19.31-9.48v38.16h-18.74V28.91ZM580.35,58.33c0,9.48,5.31,16.74,15.31,16.74s15.31-7.26,15.31-16.74-5.31-16.74-15.31-16.74-15.31,7.26-15.31,16.74Z"/>
  <path class="cls-2" d="M70.67,61.42c0,3.74-.72,7.22-2.16,10.41-1.44,3.2-3.43,5.99-5.97,8.37-2.54,2.38-5.52,4.23-8.95,5.56-3.43,1.33-7.14,1.99-11.11,1.99H0V0h38.38c3.67,0,7.1.6,10.3,1.81,3.2,1.21,5.97,2.87,8.31,4.97s4.19,4.62,5.56,7.55c1.36,2.92,2.05,6.1,2.05,9.54,0,2.26-.29,4.21-.88,5.85-.58,1.64-1.33,3.06-2.22,4.27-.9,1.21-1.87,2.26-2.92,3.16-1.05.9-2.09,1.74-3.1,2.52,1.87.86,3.72,1.93,5.56,3.22,1.83,1.29,3.45,2.81,4.86,4.56,1.4,1.75,2.55,3.78,3.45,6.08.9,2.3,1.35,4.93,1.35,7.9ZM23.87,32.53h11.58c1.56,0,2.9-.68,4.04-2.05,1.13-1.36,1.7-2.83,1.7-4.39s-.57-3-1.7-4.33c-1.13-1.33-2.48-1.99-4.04-1.99h-11.58v12.75ZM46.1,59.67c0-2.42-.74-4.41-2.22-5.97-1.48-1.56-3.32-2.34-5.5-2.34h-14.51v16.61h14.51c2.18,0,4.02-.84,5.5-2.51,1.48-1.68,2.22-3.61,2.22-5.79Z"/>
  <path class="cls-2" d="M152.8,53.82c0,5.15-.98,9.91-2.92,14.27-1.95,4.37-4.58,8.17-7.9,11.41-3.32,3.24-7.24,5.75-11.76,7.55-4.52,1.79-9.36,2.69-14.51,2.69s-9.99-.9-14.51-2.69c-4.52-1.79-8.44-4.31-11.76-7.55-3.32-3.24-5.95-7.04-7.9-11.41-1.95-4.37-2.92-9.13-2.92-14.27s.97-9.91,2.92-14.27c1.95-4.37,4.58-8.17,7.9-11.41,3.31-3.24,7.23-5.75,11.76-7.55,4.52-1.79,9.36-2.69,14.51-2.69s9.98.9,14.51,2.69c4.52,1.8,8.44,4.31,11.76,7.55,3.31,3.24,5.95,7.04,7.9,11.41,1.95,4.37,2.92,9.13,2.92,14.27ZM102.38,53.82c0,1.87.35,3.61,1.05,5.21.7,1.6,1.66,3,2.87,4.21,1.21,1.21,2.61,2.17,4.21,2.87,1.6.7,3.33,1.05,5.21,1.05s3.61-.35,5.21-1.05c1.6-.7,3-1.66,4.21-2.87,1.21-1.21,2.16-2.61,2.87-4.21.7-1.6,1.05-3.33,1.05-5.21s-.35-3.61-1.05-5.21c-.7-1.6-1.66-3-2.87-4.21-1.21-1.21-2.61-2.16-4.21-2.87-1.6-.7-3.33-1.05-5.21-1.05s-3.61.35-5.21,1.05c-1.6.7-3,1.66-4.21,2.87-1.21,1.21-2.16,2.61-2.87,4.21-.7,1.6-1.05,3.33-1.05,5.21Z"/>
  <path class="cls-2" d="M202.99,17.9c3.35,0,6.45.49,9.3,1.46,2.85.98,5.56,2.24,8.13,3.8l-11.93,20.83c-1.8-1.4-3.86-2.11-6.2-2.11-4.45,0-7.88,1.25-10.3,3.74-2.42,2.5-3.63,5.89-3.63,10.18v31.94h-23.87V20.01h20.59v10.88l.35.23c.78-1.56,1.71-3.14,2.81-4.74,1.09-1.6,2.34-3.02,3.74-4.27,1.4-1.25,3.02-2.26,4.86-3.04,1.83-.78,3.88-1.17,6.14-1.17Z"/>
  <path class="cls-2" d="M298.58,53.82c0,1.4-.08,2.77-.23,4.09-.16,1.33-.39,2.65-.7,3.98h-48.44c1.25,2.26,3.14,4.12,5.67,5.56,2.53,1.44,5.44,2.17,8.72,2.17,3.9,0,7.33-.43,10.3-1.29,2.96-.86,5.54-1.99,7.72-3.39l11.23,16.03c-3.98,2.73-8.35,4.88-13.1,6.44-4.76,1.56-9.94,2.34-15.56,2.34-5.46-.08-10.55-1.05-15.27-2.92-4.72-1.87-8.79-4.41-12.23-7.61-3.43-3.2-6.14-6.96-8.13-11.29-1.99-4.33-2.98-9.03-2.98-14.1s.94-9.91,2.81-14.27c1.87-4.37,4.45-8.17,7.72-11.41,3.28-3.24,7.14-5.75,11.58-7.55,4.45-1.79,9.24-2.69,14.39-2.69s9.95.9,14.39,2.69c4.45,1.8,8.31,4.31,11.58,7.55,3.28,3.24,5.85,7.04,7.72,11.41,1.87,4.37,2.81,9.13,2.81,14.27ZM275.18,45.75c-1.4-2.5-3.22-4.48-5.44-5.97-2.22-1.48-4.78-2.22-7.66-2.22s-5.4.74-7.55,2.22c-2.15,1.48-3.92,3.47-5.32,5.97h25.97Z"/>
  <path class="cls-2" d="M359.42,78.16h-.47c-.78,1.48-1.81,2.91-3.1,4.27-1.29,1.37-2.81,2.57-4.56,3.63s-3.73,1.91-5.91,2.57c-2.18.66-4.56.99-7.14.99-4.84,0-9.13-.88-12.87-2.63s-6.9-4.21-9.48-7.37c-2.57-3.16-4.54-6.94-5.91-11.35-1.37-4.41-2.05-9.22-2.05-14.45s.68-10.04,2.05-14.45c1.36-4.41,3.33-8.21,5.91-11.41,2.57-3.2,5.73-5.67,9.48-7.43,3.74-1.76,8.03-2.63,12.87-2.63,2.26,0,4.39.29,6.38.88s3.78,1.33,5.38,2.22c1.6.9,2.98,1.91,4.15,3.04,1.17,1.13,2.11,2.28,2.81,3.45h.47V0h23.99v87.75h-22v-9.59ZM358.13,53.82c0-1.64-.33-3.22-.99-4.74-.66-1.52-1.56-2.87-2.69-4.04-1.13-1.17-2.46-2.11-3.98-2.81-1.52-.7-3.18-1.05-4.97-1.05s-3.45.35-4.97,1.05c-1.52.7-2.85,1.64-3.98,2.81-1.13,1.17-2.03,2.52-2.69,4.04-.66,1.52-1,3.1-1,4.74s.33,3.22,1,4.74c.66,1.52,1.56,2.87,2.69,4.04,1.13,1.17,2.46,2.11,3.98,2.81,1.52.7,3.18,1.05,4.97,1.05s3.45-.35,4.97-1.05c1.52-.7,2.85-1.64,3.98-2.81,1.13-1.17,2.03-2.52,2.69-4.04.66-1.52.99-3.1.99-4.74Z"/>
</svg>